<svg width="30" height="30" viewBox="0 0 30 30" fill="none" xmlns="http://www.w3.org/2000/svg">
<circle opacity="0.1" cx="15" cy="15" r="15" fill="#6B7280"/>
<path fill-rule="evenodd" clip-rule="evenodd" d="M15 8C10.5 8 6.5 10.5 4.5 15C6.5 19.5 10.5 22 15 22C19.5 22 23.5 19.5 25.5 15C23.5 10.5 19.5 8 15 8ZM15 20C11.5 20 8.5 18 7 15C8.5 12 11.5 10 15 10C18.5 10 21.5 12 23 15C21.5 18 18.5 20 15 20Z" fill="#6B7280"/>
<path fill-rule="evenodd" clip-rule="evenodd" d="M15 12C13.3431 12 12 13.3431 12 15C12 16.6569 13.3431 18 15 18C16.6569 18 18 16.6569 18 15C18 13.3431 16.6569 12 15 12ZM15 16C14.4477 16 14 15.5523 14 15C14 14.4477 14.4477 14 15 14C15.5523 14 16 14.4477 16 15C16 15.5523 15.5523 16 15 16Z" fill="#6B7280"/>
</svg>